<svg width="350" height="350" xmlns="http://www.w3.org/2000/svg">
 <style type="text/css">.st0{fill:transparent;}
	.st1{fill:#292B37;}
	.st2{fill:#DAE8F3;}
	.st3{fill:#3F434F;}
	.st4{fill:#FDFEFF;}
	.st5{fill:#2BBBAD;}
	.st6{fill:#00695c;}
	.st7{fill:#eceff1;}
	.st8{fill:#19B2B8;}
	.st9{fill:#C0D4D3;}
	.st10{fill:#2B5E76;}
	.st11{fill:#4285F4;}
	.st12{opacity:0.1;}
	.st13{fill:#FEFEFF;}
    .st14{fill:#FFFFFF}</style>
 <g>
  <title>background</title>
  <rect fill="none" id="canvas_background" height="350" width="350" y="-1" x="-1"/>
 </g>
 <g>
  <title>Layer 1</title>
  <rect stroke="null" y="2" id="svg_1" height="310.99999" width="342.99999" class="st0" x="-0.7"/>
  <g id="svg_2">
   <path id="svg_3" d="m329.15,320.40001l-316.2,0c-2,0 -3.7,-1.7 -3.7,-3.7l0,0c0,-2 1.7,-3.7 3.7,-3.7l316.1,0c2,0 3.7,1.7 3.7,3.7l0,0c0,2 -1.6,3.7 -3.6,3.7z" class="st1"/>
   <path id="svg_4" d="m328.65,316.50001l-315.2,0c-3.2,0 -4.9,-1.3 -3.8,-2.9l44.4,-63.9l233.9,0l44.4,63.9c1.2,1.5 -0.5,2.9 -3.7,2.9z" class="st2"/>
   <path id="svg_5" d="m204.45,311.30001l-66.9,0c-1.9,0 -3.2,-0.7 -3.1,-1.7l2.2,-14c0.1,-0.8 1.6,-1.4 3.3,-1.4l61.9,0c1.7,0 3.2,0.6 3.3,1.4l2.2,14c0.4,1 -1,1.7 -2.9,1.7z" class="st3"/>
   <g id="svg_6">
    <polygon id="svg_7" points="86.25,255.20001792907715 72.65000915527344,255.20001792907715 74.05000305175781,252.79999351501465 87.35000610351562,252.79999351501465 " class="st4"/>
    <polygon id="svg_8" points="102.85000610351562,255.20001792907715 89.25,255.20001792907715 90.35000610351562,252.79999351501465 103.75,252.79999351501465 " class="st4"/>
    <polygon id="svg_9" points="119.44999694824219,255.20001792907715 105.85000610351562,255.20001792907715 106.75,252.79999351501465 120.15000915527344,252.79999351501465 " class="st4"/>
    <polygon id="svg_10" points="135.9499969482422,255.20001792907715 122.44999694824219,255.20001792907715 123.15000915527344,252.79999351501465 136.4499969482422,252.79999351501465 " class="st4"/>
    <polygon id="svg_11" points="152.5500030517578,255.20001792907715 139.0500030517578,255.20001792907715 139.4499969482422,252.79999351501465 152.85000610351562,252.79999351501465 " class="st4"/>
    <polygon id="svg_12" points="169.15000915527344,255.20001792907715 155.65000915527344,255.20001792907715 155.85000610351562,252.79999351501465 169.25,252.79999351501465 " class="st4"/>
    <polygon id="svg_13" points="185.75001525878906,255.20001792907715 172.25,255.20001792907715 172.25,252.79999351501465 185.5500030517578,252.79999351501465 " class="st4"/>
    <polygon id="svg_14" points="202.34999084472656,255.20001792907715 188.84999084472656,255.20001792907715 188.5500030517578,252.79999351501465 201.9499969482422,252.79999351501465 " class="st4"/>
    <polygon id="svg_15" points="218.9499969482422,255.20001792907715 205.4499969482422,255.20001792907715 204.9499969482422,252.79999351501465 218.34999084472656,252.79999351501465 " class="st4"/>
    <polygon id="svg_16" points="235.5500030517578,255.20001792907715 222.0500030517578,255.20001792907715 221.34999084472656,252.79999351501465 234.65000915527344,252.79999351501465 " class="st4"/>
    <polygon id="svg_17" points="252.15000915527344,255.20001792907715 238.65000915527344,255.20001792907715 237.65000915527344,252.79999351501465 251.0500030517578,252.79999351501465 " class="st4"/>
    <polygon id="svg_18" points="269.3499755859375,255.20001792907715 255.84999084472656,255.20001792907715 254.65000915527344,252.79999351501465 268.04998779296875,252.79999351501465 " class="st4"/>
   </g>
   <path id="svg_19" d="m280.65,107.40001l-219.2,0c-4,0 -7.2,3.3 -7.2,7.3l0,135l233.6,0l0,-135c0,-4.1 -3.2,-7.3 -7.2,-7.3z" class="st1"/>
   <rect id="svg_20" height="117.7" width="214.1" class="st4" y="119.20001" x="64.05"/>
   <g id="svg_21">
    <g id="svg_22">
     <polygon id="svg_23" points="69.25,289.8999996185303 52.94999313354492,289.8999996185303 57.15000534057617,282.6000118255615 72.85000610351562,282.6000118255615 " class="st3"/>
     <polygon id="svg_24" points="89.15000915527344,289.8999996185303 72.85000610351562,289.8999996185303 76.35000610351562,282.6000118255615 92.05000305175781,282.6000118255615 " class="st3"/>
     <polygon id="svg_25" points="109.05000305175781,289.8999996185303 92.85000610351562,289.8999996185303 95.55000305175781,282.6000118255615 111.25,282.6000118255615 " class="st3"/>
     <polygon id="svg_26" points="248.5500030517578,289.8999996185303 232.25001525878906,289.8999996185303 230.15000915527344,282.6000118255615 245.84999084472656,282.6000118255615 " class="st3"/>
     <polygon id="svg_27" points="228.65000915527344,289.8999996185303 212.34999084472656,289.8999996185303 210.9499969482422,282.6000118255615 226.5500030517578,282.6000118255615 " class="st3"/>
     <polygon id="svg_28" points="208.65000915527344,289.8999996185303 112.75,289.8999996185303 114.75,282.6000118255615 207.34999084472656,282.6000118255615 " class="st3"/>
     <polygon id="svg_29" points="268.4499816894531,289.8999996185303 252.25001525878906,289.8999996185303 249.34999084472656,282.6000118255615 265.04998779296875,282.6000118255615 " class="st3"/>
     <polygon id="svg_30" points="289.1499938964844,289.8999996185303 272.8499755859375,289.8999996185303 269.3499755859375,282.6000118255615 284.9499816894531,282.6000118255615 " class="st3"/>
    </g>
    <g id="svg_31">
     <polygon id="svg_32" points="68.94999694824219,290.5000057220459 52.65000534057617,290.5000057220459 56.85000228881836,283.1000118255615 72.55000305175781,283.1000118255615 " class="st3"/>
     <polygon id="svg_33" points="88.94999694824219,290.5000057220459 72.65000915527344,290.5000057220459 76.05000305175781,283.1000118255615 91.85000610351562,283.1000118255615 " class="st3"/>
     <polygon id="svg_34" points="108.85000610351562,290.5000057220459 92.55000305175781,290.5000057220459 95.35000610351562,283.1000118255615 111.05000305175781,283.1000118255615 " class="st3"/>
     <polygon id="svg_35" points="248.75001525878906,290.5000057220459 232.4499969482422,290.5000057220459 230.25001525878906,283.1000118255615 246.0500030517578,283.1000118255615 " class="st3"/>
     <polygon id="svg_36" points="228.75001525878906,290.5000057220459 212.4499969482422,290.5000057220459 211.0500030517578,283.1000118255615 226.75001525878906,283.1000118255615 " class="st3"/>
     <polygon id="svg_37" points="208.84999084472656,290.5000057220459 112.55000305175781,290.5000057220459 114.65000915527344,283.1000118255615 207.4499969482422,283.1000118255615 " class="st3"/>
     <polygon id="svg_38" points="268.75,290.5000057220459 252.4499969482422,290.5000057220459 249.5500030517578,283.1000118255615 265.25,283.1000118255615 " class="st3"/>
     <polygon id="svg_39" points="289.4499816894531,290.5000057220459 273.1499938964844,290.5000057220459 269.54998779296875,283.1000118255615 285.25,283.1000118255615 " class="st3"/>
    </g>
   </g>
   <g id="svg_40">
    <g id="svg_41">
     <g id="svg_42">
      <polygon id="svg_43" points="111.94999694824219,280.29999351501465 58.54999923706055,280.29999351501465 62.35000228881836,273.6000118255615 113.94999694824219,273.6000118255615 " class="st3"/>
     </g>
     <g id="svg_44">
      <polygon id="svg_45" points="130.9499969482422,280.29999351501465 115.44999694824219,280.29999351501465 117.35000610351562,273.6000118255615 132.25,273.6000118255615 " class="st3"/>
     </g>
     <g id="svg_46">
      <polygon id="svg_47" points="149.9499969482422,280.29999351501465 134.4499969482422,280.29999351501465 135.65000915527344,273.6000118255615 150.65000915527344,273.6000118255615 " class="st3"/>
     </g>
     <g id="svg_48">
      <polygon id="svg_49" points="168.9499969482422,280.29999351501465 153.4499969482422,280.29999351501465 154.0500030517578,273.6000118255615 169.0500030517578,273.6000118255615 " class="st3"/>
     </g>
     <g id="svg_50">
      <polygon id="svg_51" points="187.9499969482422,280.29999351501465 172.4499969482422,280.29999351501465 172.4499969482422,273.6000118255615 187.34999084472656,273.6000118255615 " class="st3"/>
     </g>
     <g id="svg_52">
      <polygon id="svg_53" points="206.9499969482422,280.29999351501465 191.4499969482422,280.29999351501465 190.75001525878906,273.6000118255615 205.75001525878906,273.6000118255615 " class="st3"/>
     </g>
     <g id="svg_54">
      <polygon id="svg_55" points="225.9499969482422,280.29999351501465 210.4499969482422,280.29999351501465 209.15000915527344,273.6000118255615 224.15000915527344,273.6000118255615 " class="st3"/>
     </g>
     <g id="svg_56">
      <polygon id="svg_57" points="283.6499938964844,280.29999351501465 229.4499969482422,280.29999351501465 227.4499969482422,273.6000118255615 279.8499755859375,273.6000118255615 " class="st3"/>
     </g>
    </g>
    <g id="svg_58">
     <g id="svg_59">
      <polygon id="svg_60" points="111.75,280.79999351501465 58.249996185302734,280.79999351501465 62.04999923706055,274.1000118255615 113.75,274.1000118255615 " class="st3"/>
     </g>
     <g id="svg_61">
      <polygon id="svg_62" points="130.75,280.79999351501465 115.25,280.79999351501465 117.15000915527344,274.1000118255615 132.15000915527344,274.1000118255615 " class="st3"/>
     </g>
     <g id="svg_63">
      <polygon id="svg_64" points="149.85000610351562,280.79999351501465 134.25,280.79999351501465 135.5500030517578,274.1000118255615 150.5500030517578,274.1000118255615 " class="st3"/>
     </g>
     <g id="svg_65">
      <polygon id="svg_66" points="168.9499969482422,280.79999351501465 153.35000610351562,280.79999351501465 153.9499969482422,274.1000118255615 168.9499969482422,274.1000118255615 " class="st3"/>
     </g>
     <g id="svg_67">
      <polygon id="svg_68" points="187.9499969482422,280.79999351501465 172.4499969482422,280.79999351501465 172.35000610351562,274.1000118255615 187.34999084472656,274.1000118255615 " class="st3"/>
     </g>
     <g id="svg_69">
      <polygon id="svg_70" points="207.0500030517578,280.79999351501465 191.4499969482422,280.79999351501465 190.75001525878906,274.1000118255615 205.75001525878906,274.1000118255615 " class="st3"/>
     </g>
     <g id="svg_71">
      <polygon id="svg_72" points="226.0500030517578,280.79999351501465 210.5500030517578,280.79999351501465 209.15000915527344,274.1000118255615 224.25001525878906,274.1000118255615 " class="st3"/>
     </g>
     <g id="svg_73">
      <polygon id="svg_74" points="283.8499755859375,280.79999351501465 229.5500030517578,280.79999351501465 227.65000915527344,274.1000118255615 280.04998779296875,274.1000118255615 " class="st3"/>
     </g>
    </g>
   </g>
   <g id="svg_75">
    <g id="svg_76">
     <g id="svg_77">
      <polygon id="svg_78" points="82.15000915527344,263.5000057220459 67.94999694824219,263.5000057220459 71.15000915527344,257.8999996185303 84.85000610351562,257.8999996185303 " class="st3"/>
     </g>
     <g id="svg_79">
      <polygon id="svg_80" points="99.55000305175781,263.5000057220459 85.35000610351562,263.5000057220459 87.94999694824219,257.8999996185303 101.75,257.8999996185303 " class="st3"/>
     </g>
     <g id="svg_81">
      <polygon id="svg_82" points="116.94999694824219,263.5000057220459 102.75,263.5000057220459 104.85000610351562,257.8999996185303 118.65000915527344,257.8999996185303 " class="st3"/>
     </g>
     <g id="svg_83">
      <polygon id="svg_84" points="134.35000610351562,263.5000057220459 120.15000915527344,263.5000057220459 121.75,257.8999996185303 135.4499969482422,257.8999996185303 " class="st3"/>
     </g>
     <g id="svg_85">
      <polygon id="svg_86" points="151.75,263.5000057220459 137.5500030517578,263.5000057220459 138.5500030517578,257.8999996185303 152.35000610351562,257.8999996185303 " class="st3"/>
     </g>
     <g id="svg_87">
      <polygon id="svg_88" points="169.15000915527344,263.5000057220459 154.9499969482422,263.5000057220459 155.4499969482422,257.8999996185303 169.15000915527344,257.8999996185303 " class="st3"/>
     </g>
     <g id="svg_89">
      <polygon id="svg_90" points="186.5500030517578,263.5000057220459 172.35000610351562,263.5000057220459 172.25,257.8999996185303 186.0500030517578,257.8999996185303 " class="st3"/>
     </g>
     <g id="svg_91">
      <polygon id="svg_92" points="203.9499969482422,263.5000057220459 189.75001525878906,263.5000057220459 189.15000915527344,257.8999996185303 202.9499969482422,257.8999996185303 " class="st3"/>
     </g>
     <g id="svg_93">
      <polygon id="svg_94" points="221.34999084472656,263.5000057220459 207.15000915527344,263.5000057220459 206.0500030517578,257.8999996185303 219.75001525878906,257.8999996185303 " class="st3"/>
     </g>
     <g id="svg_95">
      <polygon id="svg_96" points="238.75001525878906,263.5000057220459 224.5500030517578,263.5000057220459 222.84999084472656,257.8999996185303 236.65000915527344,257.8999996185303 " class="st3"/>
     </g>
     <g id="svg_97">
      <polygon id="svg_98" points="256.1499938964844,263.5000057220459 241.9499969482422,263.5000057220459 239.75001525878906,257.8999996185303 253.4499969482422,257.8999996185303 " class="st3"/>
     </g>
     <g id="svg_99">
      <polygon id="svg_100" points="274.1499938964844,263.5000057220459 259.9499816894531,263.5000057220459 257.25,257.8999996185303 270.9499816894531,257.8999996185303 " class="st3"/>
     </g>
    </g>
    <g id="svg_101">
     <g id="svg_102">
      <polygon id="svg_103" points="81.94999694824219,263.8999996185303 67.65000915527344,263.8999996185303 70.85000610351562,258.29999351501465 84.65000915527344,258.29999351501465 " class="st3"/>
     </g>
     <g id="svg_104">
      <polygon id="svg_105" points="99.35000610351562,263.8999996185303 85.15000915527344,263.8999996185303 87.75,258.29999351501465 101.55000305175781,258.29999351501465 " class="st3"/>
     </g>
     <g id="svg_106">
      <polygon id="svg_107" points="116.85000610351562,263.8999996185303 102.55000305175781,263.8999996185303 104.65000915527344,258.29999351501465 118.44999694824219,258.29999351501465 " class="st3"/>
     </g>
     <g id="svg_108">
      <polygon id="svg_109" points="134.25,263.8999996185303 120.05000305175781,263.8999996185303 121.55000305175781,258.29999351501465 135.35000610351562,258.29999351501465 " class="st3"/>
     </g>
     <g id="svg_110">
      <polygon id="svg_111" points="151.65000915527344,263.8999996185303 137.4499969482422,263.8999996185303 138.4499969482422,258.29999351501465 152.25,258.29999351501465 " class="st3"/>
     </g>
     <g id="svg_112">
      <polygon id="svg_113" points="169.15000915527344,263.8999996185303 154.85000610351562,263.8999996185303 155.35000610351562,258.29999351501465 169.15000915527344,258.29999351501465 " class="st3"/>
     </g>
     <g id="svg_114">
      <polygon id="svg_115" points="186.5500030517578,263.8999996185303 172.35000610351562,263.8999996185303 172.25,258.29999351501465 186.0500030517578,258.29999351501465 " class="st3"/>
     </g>
     <g id="svg_116">
      <polygon id="svg_117" points="204.0500030517578,263.8999996185303 189.75001525878906,263.8999996185303 189.15000915527344,258.29999351501465 202.9499969482422,258.29999351501465 " class="st3"/>
     </g>
     <g id="svg_118">
      <polygon id="svg_119" points="221.4499969482422,263.8999996185303 207.25001525878906,263.8999996185303 206.0500030517578,258.29999351501465 219.84999084472656,258.29999351501465 " class="st3"/>
     </g>
     <g id="svg_120">
      <polygon id="svg_121" points="238.84999084472656,263.8999996185303 224.65000915527344,263.8999996185303 222.9499969482422,258.29999351501465 236.75001525878906,258.29999351501465 " class="st3"/>
     </g>
     <g id="svg_122">
      <polygon id="svg_123" points="256.3499755859375,263.8999996185303 242.0500030517578,263.8999996185303 239.84999084472656,258.29999351501465 253.65000915527344,258.29999351501465 " class="st3"/>
     </g>
     <g id="svg_124">
      <polygon id="svg_125" points="274.4499816894531,263.8999996185303 260.1499938964844,263.8999996185303 257.4499816894531,258.29999351501465 271.25,258.29999351501465 " class="st3"/>
     </g>
    </g>
   </g>
   <g id="svg_126">
    <g id="svg_127">
     <g id="svg_128">
      <polygon id="svg_129" points="95.55000305175781,271.5000057220459 63.35000228881836,271.5000057220459 66.85000610351562,265.3999996185303 97.94999694824219,265.3999996185303 " class="st3"/>
     </g>
     <g id="svg_130">
      <polygon id="svg_131" points="114.55000305175781,271.5000057220459 99.75,271.5000057220459 102.05000305175781,265.3999996185303 116.35000610351562,265.3999996185303 " class="st3"/>
     </g>
     <g id="svg_132">
      <polygon id="svg_133" points="132.75,271.5000057220459 117.85000610351562,271.5000057220459 119.65000915527344,265.3999996185303 133.9499969482422,265.3999996185303 " class="st3"/>
     </g>
     <g id="svg_134">
      <polygon id="svg_135" points="150.85000610351562,271.5000057220459 136.0500030517578,271.5000057220459 137.15000915527344,265.3999996185303 151.5500030517578,265.3999996185303 " class="st3"/>
     </g>
     <g id="svg_136">
      <polygon id="svg_137" points="169.0500030517578,271.5000057220459 154.25,271.5000057220459 154.75,265.3999996185303 169.15000915527344,265.3999996185303 " class="st3"/>
     </g>
     <g id="svg_138">
      <polygon id="svg_139" points="187.25001525878906,271.5000057220459 172.35000610351562,271.5000057220459 172.35000610351562,265.3999996185303 186.65000915527344,265.3999996185303 " class="st3"/>
     </g>
     <g id="svg_140">
      <polygon id="svg_141" points="205.34999084472656,271.5000057220459 190.5500030517578,271.5000057220459 189.9499969482422,265.3999996185303 204.25001525878906,265.3999996185303 " class="st3"/>
     </g>
     <g id="svg_142">
      <polygon id="svg_143" points="223.5500030517578,271.5000057220459 208.75001525878906,271.5000057220459 207.5500030517578,265.3999996185303 221.84999084472656,265.3999996185303 " class="st3"/>
     </g>
     <g id="svg_144">
      <polygon id="svg_145" points="241.75001525878906,271.5000057220459 226.84999084472656,271.5000057220459 225.0500030517578,265.3999996185303 239.4499969482422,265.3999996185303 " class="st3"/>
     </g>
     <g id="svg_146">
      <polygon id="svg_147" points="278.75,271.5000057220459 245.0500030517578,271.5000057220459 242.65000915527344,265.3999996185303 275.25,265.3999996185303 " class="st3"/>
     </g>
    </g>
    <g id="svg_148">
     <g id="svg_149">
      <polygon id="svg_150" points="95.35000610351562,272.0000057220459 63.15000534057617,272.0000057220459 66.65000915527344,265.8999996185303 97.75,265.8999996185303 " class="st3"/>
     </g>
     <g id="svg_151">
      <polygon id="svg_152" points="114.35000610351562,272.0000057220459 99.55000305175781,272.0000057220459 101.85000610351562,265.8999996185303 116.25,265.8999996185303 " class="st3"/>
     </g>
     <g id="svg_153">
      <polygon id="svg_154" points="132.65000915527344,272.0000057220459 117.75,272.0000057220459 119.44999694824219,265.8999996185303 133.85000610351562,265.8999996185303 " class="st3"/>
     </g>
     <g id="svg_155">
      <polygon id="svg_156" points="150.85000610351562,272.0000057220459 135.9499969482422,272.0000057220459 137.0500030517578,265.8999996185303 151.4499969482422,265.8999996185303 " class="st3"/>
     </g>
     <g id="svg_157">
      <polygon id="svg_158" points="169.0500030517578,272.0000057220459 154.15000915527344,272.0000057220459 154.75,265.8999996185303 169.15000915527344,265.8999996185303 " class="st3"/>
     </g>
     <g id="svg_159">
      <polygon id="svg_160" points="187.25001525878906,272.0000057220459 172.35000610351562,272.0000057220459 172.35000610351562,265.8999996185303 186.75001525878906,265.8999996185303 " class="st3"/>
     </g>
     <g id="svg_161">
      <polygon id="svg_162" points="205.4499969482422,272.0000057220459 190.65000915527344,272.0000057220459 189.9499969482422,265.8999996185303 204.34999084472656,265.8999996185303 " class="st3"/>
     </g>
     <g id="svg_163">
      <polygon id="svg_164" points="223.65000915527344,272.0000057220459 208.84999084472656,272.0000057220459 207.5500030517578,265.8999996185303 221.9499969482422,265.8999996185303 " class="st3"/>
     </g>
     <g id="svg_165">
      <polygon id="svg_166" points="241.84999084472656,272.0000057220459 227.0500030517578,272.0000057220459 225.25001525878906,265.8999996185303 239.5500030517578,265.8999996185303 " class="st3"/>
     </g>
     <g id="svg_167">
      <polygon id="svg_168" points="278.9499816894531,272.0000057220459 245.25001525878906,272.0000057220459 242.84999084472656,265.8999996185303 275.54998779296875,265.8999996185303 " class="st3"/>
     </g>
    </g>
   </g>
   <g id="svg_169">
    <polygon id="svg_170" points="86.05000305175781,255.60001182556152 72.44999694824219,255.60001182556152 73.85000610351562,253.10001182556152 87.25,253.10001182556152 " class="st3"/>
    <polygon id="svg_171" points="102.65000915527344,255.60001182556152 89.05000305175781,255.60001182556152 90.25,253.10001182556152 103.65000915527344,253.10001182556152 " class="st3"/>
    <polygon id="svg_172" points="119.35000610351562,255.60001182556152 105.75,255.60001182556152 106.65000915527344,253.10001182556152 120.05000305175781,253.10001182556152 " class="st3"/>
    <polygon id="svg_173" points="135.9499969482422,255.60001182556152 122.35000610351562,255.60001182556152 123.05000305175781,253.10001182556152 136.4499969482422,253.10001182556152 " class="st3"/>
    <polygon id="svg_174" points="152.5500030517578,255.60001182556152 139.0500030517578,255.60001182556152 139.4499969482422,253.10001182556152 152.85000610351562,253.10001182556152 " class="st3"/>
    <polygon id="svg_175" points="169.25,255.60001182556152 155.65000915527344,255.60001182556152 155.85000610351562,253.10001182556152 169.25,253.10001182556152 " class="st3"/>
    <polygon id="svg_176" points="185.84999084472656,255.60001182556152 172.25,255.60001182556152 172.25,253.10001182556152 185.65000915527344,253.10001182556152 " class="st3"/>
    <polygon id="svg_177" points="202.4499969482422,255.60001182556152 188.9499969482422,255.60001182556152 188.65000915527344,253.10001182556152 202.0500030517578,253.10001182556152 " class="st3"/>
    <polygon id="svg_178" points="219.15000915527344,255.60001182556152 205.5500030517578,255.60001182556152 205.0500030517578,253.10001182556152 218.4499969482422,253.10001182556152 " class="st3"/>
    <polygon id="svg_179" points="235.75001525878906,255.60001182556152 222.15000915527344,255.60001182556152 221.4499969482422,253.10001182556152 234.84999084472656,253.10001182556152 " class="st3"/>
    <polygon id="svg_180" points="252.34999084472656,255.60001182556152 238.84999084472656,255.60001182556152 237.84999084472656,253.10001182556152 251.25001525878906,253.10001182556152 " class="st3"/>
    <polygon id="svg_181" points="269.6499938964844,255.60001182556152 256.04998779296875,255.60001182556152 254.84999084472656,253.10001182556152 268.25,253.10001182556152 " class="st3"/>
   </g>
   <g id="svg_182">
    <rect id="svg_183" height="4.2" width="23.2" class="st4" y="246.20001" x="251.55"/>
    <rect id="svg_184" height="4.2" width="23.2" class="st4" y="246.20001" x="67.25"/>
   </g>
   <rect id="svg_185" height="117.7" width="214.1" class="st5" y="119.20001" x="64.05"/>
   <rect id="svg_186" height="112" width="155" class="st6" y="119.10001" x="98.35"/>
   <rect id="svg_187" height="147.4" width="154.8" class="st7" y="78.90001" x="92.65"/>
   <rect id="svg_188" height="114.4" width="138.3" class="st8" y="104.30001" x="100.85"/>
   <rect id="svg_189" height="8" width="95.7" class="st9" y="86.70001" x="143.45"/>
   <ellipse id="svg_190" ry="4.1" rx="4.1" cy="78.89104" cx="242.14998" class="st9" transform="matrix(0.1602,-0.9871,0.9871,0.1602,-11.4469,317.1548) "/>
   <ellipse id="svg_191" ry="4.1" rx="4.1" cy="74.84529" cx="247.86905" class="st9" transform="matrix(0.2298,-0.9732,0.9732,0.2298,-12.6191,314.9269) "/>
   <ellipse id="svg_192" ry="4.1" rx="4.1" cy="59.56833" cx="203.92824" class="st9" transform="matrix(0.7071,-0.7071,0.7071,0.7071,-57.1343,193.2001) "/>
   <circle id="svg_193" r="18.8" cy="133.20001" cx="127.25" class="st10"/>
   <path id="svg_194" d="m133.15,125.50001c0,0.1 0,0.2 0,0.3c0,0.1 0,0.2 0,0.3c0,0.2 0,0.3 -0.1,0.5c0,0.2 -0.1,0.3 -0.1,0.5c-0.1,0.3 -0.2,0.6 -0.3,0.9c0,0 0,0.1 -0.1,0.1c-0.1,0.1 -0.1,0.3 -0.2,0.4c0,0 0,0.1 -0.1,0.1c-0.3,0.5 -0.6,0.9 -1,1.3c0,0 -0.1,0.1 -0.1,0.1c-0.1,0.1 -0.1,0.1 -0.2,0.2c0,0 -0.1,0.1 -0.1,0.1c-0.1,0.1 -0.2,0.2 -0.3,0.2c0,0 0,0 0,0c-0.1,0.1 -0.3,0.2 -0.4,0.3c-0.1,0.1 -0.3,0.1 -0.4,0.2c0,0 0,0 0,0c-0.3,0.1 -0.6,0.2 -0.9,0.3c-0.1,0 -0.1,0 -0.2,0.1c-0.3,0.1 -0.6,0.1 -1,0.1c-0.1,0 -0.2,0 -0.3,0c-0.1,0 -0.1,0 -0.2,0c-0.1,0 -0.1,0 -0.2,0c-0.1,0 -0.2,0 -0.3,0c-0.3,0 -0.6,-0.1 -1,-0.1c-0.1,0 -0.1,0 -0.2,-0.1c-0.3,-0.1 -0.6,-0.2 -0.9,-0.3c0,0 0,0 0,0c-0.1,-0.1 -0.3,-0.1 -0.4,-0.2c-0.2,-0.1 -0.3,-0.2 -0.5,-0.3c0,0 0,0 0,0c-0.1,-0.1 -0.2,-0.2 -0.3,-0.2c0,0 -0.1,-0.1 -0.1,-0.1c-0.1,-0.1 -0.1,-0.1 -0.2,-0.2c-0.1,-0.1 -0.1,-0.1 -0.2,-0.2c-0.4,-0.4 -0.7,-0.8 -0.9,-1.2c0,0 0,-0.1 -0.1,-0.1c-0.1,-0.1 -0.1,-0.3 -0.2,-0.4c0,0 0,-0.1 -0.1,-0.1c-0.1,-0.3 -0.2,-0.6 -0.3,-0.9c0,-0.2 -0.1,-0.3 -0.1,-0.5c0,-0.2 0,-0.3 -0.1,-0.5c0,-0.1 0,-0.2 0,-0.3c0,-0.1 0,-0.2 0,-0.3c0,-0.1 0,-0.2 0,-0.3c0,-0.1 0,-0.1 0,-0.2l0,0c0,0 0,-0.1 0,-0.1c0,0 0,-0.1 0,-0.1c0,-0.1 0,-0.2 0.1,-0.3c0,-0.2 0.1,-0.3 0.1,-0.5c0.1,-0.3 0.2,-0.6 0.3,-0.9c0,0 0,0 0,-0.1c0,0 0,0 0,-0.1c0.1,-0.1 0.1,-0.3 0.2,-0.4c0,0 0,-0.1 0.1,-0.1c0.3,-0.5 0.6,-0.9 1,-1.3c0,0 0.1,-0.1 0.1,-0.1c0.1,-0.1 0.1,-0.1 0.2,-0.2c0,0 0.1,-0.1 0.1,-0.1c0.1,-0.1 0.2,-0.2 0.3,-0.2c0,0 0,0 0,0c0.3,-0.2 0.6,-0.3 0.9,-0.5c0,0 0,0 0,0c0.3,-0.1 0.6,-0.2 0.9,-0.3c0.1,0 0.1,0 0.2,-0.1c0.3,-0.1 0.6,-0.1 1,-0.1c0.1,0 0.2,0 0.3,0c0.1,0 0.1,0 0.2,0c0.1,0 0.1,0 0.2,0c0.1,0 0.2,0 0.3,0c0.3,0 0.6,0.1 1,0.1c0.1,0 0.1,0 0.2,0.1c0.3,0.1 0.6,0.2 0.9,0.3c0,0 0,0 0,0c0.3,0.1 0.6,0.3 0.9,0.5c0,0 0,0 0,0c0.1,0.1 0.2,0.2 0.3,0.2c0,0 0.1,0.1 0.1,0.1c0.1,0.1 0.1,0.1 0.2,0.2c0,0 0.1,0.1 0.1,0.1c0.4,0.4 0.8,0.8 1,1.3c0,0 0,0.1 0.1,0.1c0.1,0.1 0.1,0.3 0.2,0.4c0,0 0,0.1 0.1,0.1c0.1,0.3 0.2,0.6 0.3,0.9c0,0.2 0.1,0.3 0.1,0.5c0,0.2 0,0.3 0.1,0.5c0,0 0,0.1 0,0.1c0,0.1 0,0.1 0,0.2c0,0 0,0.2 0,0.3z" class="st7"/>
   <path id="svg_195" d="m137.55,137.20001l0,6.4c0,0.1 -0.1,0.3 -0.2,0.3l-20.1,0c-0.1,0 -0.3,-0.1 -0.3,-0.3l0,-6.4c0,-0.1 0,-0.2 0,-0.3c0.1,-1.5 0.7,-2.9 1.6,-3.9c0,0 0.1,-0.1 0.1,-0.1c0.5,-0.5 1,-0.9 1.6,-1.2c0,0 0.1,0 0.1,-0.1c0.2,-0.1 0.3,-0.2 0.5,-0.2c0,0 0.1,0 0.1,0c0.2,-0.1 0.3,-0.1 0.5,-0.1c0.2,0.2 0.4,0.4 0.6,0.5c0.6,0.4 1.2,0.8 1.8,1.1c0.1,0.1 0.2,0.1 0.4,0.2c0.5,0.2 1,0.3 1.4,0.4c0.5,0.1 1,0.1 1.5,0.1c0.6,0 1.1,-0.1 1.7,-0.2c0.1,0 0.1,0 0.2,0l0,0c0.1,-0.1 0.2,-0.1 0.3,-0.1c0,0 0,0 0,0c0.3,-0.1 0.5,-0.2 0.8,-0.3c0.1,0 0.2,-0.1 0.3,-0.1c0.5,-0.2 1,-0.5 1.4,-0.8l0,0c0,-0.1 0.1,-0.1 0.1,-0.1c0.3,-0.2 0.6,-0.5 0.8,-0.7c2.5,0.6 4.4,2.9 4.6,5.7c0.2,0 0.2,0.1 0.2,0.2z" class="st7"/>
   <ellipse id="svg_196" ry="18.8" rx="18.8" cy="178.49104" cx="264.14998" class="st10" transform="matrix(0.1602,-0.9871,0.9871,0.1602,-91.2706,422.6183) "/>
   <path id="svg_197" d="m133.15,182.70001c0,0.1 0,0.2 0,0.3c0,0.1 0,0.2 0,0.3c0,0.2 0,0.3 -0.1,0.5c0,0.2 -0.1,0.3 -0.1,0.5c-0.1,0.3 -0.2,0.6 -0.3,0.9c0,0 0,0.1 -0.1,0.1c-0.1,0.1 -0.1,0.3 -0.2,0.4c0,0 0,0.1 -0.1,0.1c-0.3,0.5 -0.6,0.9 -1,1.3c0,0 -0.1,0.1 -0.1,0.1c-0.1,0.1 -0.1,0.1 -0.2,0.2c0,0 -0.1,0.1 -0.1,0.1c-0.1,0.1 -0.2,0.2 -0.3,0.2c0,0 0,0 0,0c-0.1,0.1 -0.3,0.2 -0.4,0.3c-0.1,0.1 -0.3,0.1 -0.4,0.2c0,0 0,0 0,0c-0.3,0.1 -0.6,0.2 -0.9,0.3c-0.1,0 -0.1,0 -0.2,0.1c-0.3,0.1 -0.6,0.1 -1,0.1c-0.1,0 -0.2,0 -0.3,0c-0.1,0 -0.1,0 -0.2,0c-0.1,0 -0.1,0 -0.2,0c-0.1,0 -0.2,0 -0.3,0c-0.3,0 -0.6,-0.1 -1,-0.1c-0.1,0 -0.1,0 -0.2,-0.1c-0.3,-0.1 -0.6,-0.2 -0.9,-0.3c0,0 0,0 0,0c-0.1,-0.1 -0.3,-0.1 -0.4,-0.2c-0.2,-0.1 -0.3,-0.2 -0.5,-0.3c0,0 0,0 0,0c-0.1,-0.1 -0.2,-0.2 -0.3,-0.2c0,0 -0.1,-0.1 -0.1,-0.1c-0.1,-0.1 -0.1,-0.1 -0.2,-0.2c-0.1,-0.1 -0.1,-0.1 -0.2,-0.2c-0.4,-0.4 -0.7,-0.8 -0.9,-1.2c0,0 0,-0.1 -0.1,-0.1c-0.1,-0.1 -0.1,-0.3 -0.2,-0.4c0,0 0,-0.1 -0.1,-0.1c-0.1,-0.3 -0.2,-0.6 -0.3,-0.9c0,-0.2 -0.1,-0.3 -0.1,-0.5c0,-0.2 0,-0.3 -0.1,-0.5c0,-0.1 0,-0.2 0,-0.3c0,-0.1 0,-0.2 0,-0.3s0,-0.2 0,-0.3c0,-0.1 0,-0.1 0,-0.2l0,0c0,0 0,-0.1 0,-0.1c0,0 0,-0.1 0,-0.1c0,-0.1 0,-0.2 0.1,-0.3c0,-0.2 0.1,-0.3 0.1,-0.5c0.1,-0.3 0.2,-0.6 0.3,-0.9c0,0 0,0 0,-0.1c0,0 0,0 0,-0.1c0.1,-0.1 0.1,-0.3 0.2,-0.4c0,0 0,-0.1 0.1,-0.1c0.3,-0.5 0.6,-0.9 1,-1.3c0,0 0.1,-0.1 0.1,-0.1c0.1,-0.1 0.1,-0.1 0.2,-0.2c0,0 0.1,-0.1 0.1,-0.1c0.1,-0.1 0.2,-0.2 0.3,-0.2c0,0 0,0 0,0c0.3,-0.2 0.6,-0.3 0.9,-0.5c0,0 0,0 0,0c0.3,-0.1 0.6,-0.2 0.9,-0.3c0.1,0 0.1,0 0.2,-0.1c0.3,-0.1 0.6,-0.1 1,-0.1c0.1,0 0.2,0 0.3,0c0.1,0 0.1,0 0.2,0c0.1,0 0.1,0 0.2,0c0.1,0 0.2,0 0.3,0c0.3,0 0.6,0.1 1,0.1c0.1,0 0.1,0 0.2,0.1c0.3,0.1 0.6,0.2 0.9,0.3c0,0 0,0 0,0c0.3,0.1 0.6,0.3 0.9,0.5c0,0 0,0 0,0c0.1,0.1 0.2,0.2 0.3,0.2c0,0 0.1,0.1 0.1,0.1c0.1,0.1 0.1,0.1 0.2,0.2c0,0 0.1,0.1 0.1,0.1c0.4,0.4 0.8,0.8 1,1.3c0,0 0,0.1 0.1,0.1c0.1,0.1 0.1,0.3 0.2,0.4c0,0 0,0.1 0.1,0.1c0.1,0.3 0.2,0.6 0.3,0.9c0,0.2 0.1,0.3 0.1,0.5c0,0.2 0,0.3 0.1,0.5c0,0 0,0.1 0,0.1c0,0.1 0,0.1 0,0.2c0,0.1 0,0.2 0,0.3z" class="st7"/>
   <path id="svg_198" d="m137.55,194.50001l0,6.4c0,0.1 -0.1,0.3 -0.2,0.3l-20.1,0c-0.1,0 -0.3,-0.1 -0.3,-0.3l0,-6.4c0,-0.1 0,-0.2 0,-0.3c0.1,-1.5 0.7,-2.9 1.6,-3.9c0,0 0.1,-0.1 0.1,-0.1c0.5,-0.5 1,-0.9 1.6,-1.2c0,0 0.1,0 0.1,-0.1c0.2,-0.1 0.3,-0.2 0.5,-0.2c0,0 0.1,0 0.1,0c0.2,-0.1 0.3,-0.1 0.5,-0.1c0.2,0.2 0.4,0.4 0.6,0.5c0.6,0.4 1.2,0.8 1.8,1.1c0.1,0.1 0.2,0.1 0.4,0.2c0.5,0.2 1,0.3 1.4,0.4c0.5,0.1 1,0.1 1.5,0.1c0.6,0 1.1,-0.1 1.7,-0.2c0.1,0 0.1,0 0.2,0l0,0c0.1,-0.1 0.2,-0.1 0.3,-0.1c0,0 0,0 0,0c0.3,-0.1 0.5,-0.2 0.8,-0.3c0.1,0 0.2,-0.1 0.3,-0.1c0.5,-0.2 1,-0.5 1.4,-0.8l0,0c0,-0.1 0.1,-0.1 0.1,-0.1c0.3,-0.2 0.6,-0.5 0.8,-0.7c2.5,0.6 4.4,2.9 4.6,5.7c0.2,0 0.2,0.1 0.2,0.2z" class="st7"/>
   <path id="svg_199" d="m185.75,122.90001l-30.1,0c-1.1,0 -1.9,-0.9 -1.9,-1.9l0,0c0,-1.1 0.9,-1.9 1.9,-1.9l30.1,0c1.1,0 1.9,0.9 1.9,1.9l0,0c0,1 -0.8,1.9 -1.9,1.9z" class="st10"/>
   <path id="svg_200" d="m226.65,128.50001l-71.4,0c-0.8,0 -1.5,-0.7 -1.5,-1.5l0,0c0,-0.8 0.7,-1.5 1.5,-1.5l71.4,0c0.8,0 1.5,0.7 1.5,1.5l0,0c0,0.8 -0.7,1.5 -1.5,1.5z" class="st10"/>
   <path id="svg_201" d="m226.65,134.20001l-71.4,0c-0.8,0 -1.5,-0.7 -1.5,-1.5l0,0c0,-0.8 0.7,-1.5 1.5,-1.5l71.4,0c0.8,0 1.5,0.7 1.5,1.5l0,0c0,0.8 -0.7,1.5 -1.5,1.5z" class="st10"/>
   <path id="svg_202" d="m226.65,139.90001l-71.4,0c-0.8,0 -1.5,-0.7 -1.5,-1.5l0,0c0,-0.8 0.7,-1.5 1.5,-1.5l71.4,0c0.8,0 1.5,0.7 1.5,1.5l0,0c0,0.8 -0.7,1.5 -1.5,1.5z" class="st10"/>
   <path id="svg_203" d="m226.65,145.60001l-71.4,0c-0.8,0 -1.5,-0.7 -1.5,-1.5l0,0c0,-0.8 0.7,-1.5 1.5,-1.5l71.4,0c0.8,0 1.5,0.7 1.5,1.5l0,0c0,0.9 -0.7,1.5 -1.5,1.5z" class="st10"/>
   <path id="svg_204" d="m226.65,151.40001l-71.4,0c-0.8,0 -1.5,-0.7 -1.5,-1.5l0,0c0,-0.8 0.7,-1.5 1.5,-1.5l71.4,0c0.8,0 1.5,0.7 1.5,1.5l0,0c0,0.8 -0.7,1.5 -1.5,1.5z" class="st10"/>
   <path id="svg_205" d="m185.75,178.90001l-30.1,0c-1.1,0 -1.9,-0.9 -1.9,-1.9l0,0c0,-1.1 0.9,-1.9 1.9,-1.9l30.1,0c1.1,0 1.9,0.9 1.9,1.9l0,0c0,1 -0.8,1.9 -1.9,1.9z" class="st10"/>
   <path id="svg_206" d="m226.65,184.50001l-71.4,0c-0.8,0 -1.5,-0.7 -1.5,-1.5l0,0c0,-0.8 0.7,-1.5 1.5,-1.5l71.4,0c0.8,0 1.5,0.7 1.5,1.5l0,0c0,0.8 -0.7,1.5 -1.5,1.5z" class="st10"/>
   <path id="svg_207" d="m226.65,190.20001l-71.4,0c-0.8,0 -1.5,-0.7 -1.5,-1.5l0,0c0,-0.8 0.7,-1.5 1.5,-1.5l71.4,0c0.8,0 1.5,0.7 1.5,1.5l0,0c0,0.8 -0.7,1.5 -1.5,1.5z" class="st10"/>
   <path id="svg_208" d="m226.65,195.90001l-71.4,0c-0.8,0 -1.5,-0.7 -1.5,-1.5l0,0c0,-0.8 0.7,-1.5 1.5,-1.5l71.4,0c0.8,0 1.5,0.7 1.5,1.5l0,0c0,0.9 -0.7,1.5 -1.5,1.5z" class="st10"/>
   <path id="svg_209" d="m226.65,201.70001l-71.4,0c-0.8,0 -1.5,-0.7 -1.5,-1.5l0,0c0,-0.8 0.7,-1.5 1.5,-1.5l71.4,0c0.8,0 1.5,0.7 1.5,1.5l0,0c0,0.8 -0.7,1.5 -1.5,1.5z" class="st10"/>
   <path id="svg_210" d="m226.65,207.40001l-71.4,0c-0.8,0 -1.5,-0.7 -1.5,-1.5l0,0c0,-0.8 0.7,-1.5 1.5,-1.5l71.4,0c0.8,0 1.5,0.7 1.5,1.5l0,0c0,0.8 -0.7,1.5 -1.5,1.5z" class="st10"/>
   <path id="svg_211" d="m275.25,167.30001l12.4,-17.9c-5.1,-5.4 -8.3,-12.7 -8.3,-20.8c0,-16.7 13.5,-30.2 30.2,-30.2s30.2,13.5 30.2,30.2s-13.5,30.2 -30.2,30.2c-4.4,0 -8.6,-0.9 -12.3,-2.6l-22,11.1z" class="st7"/>
   <g id="svg_212">
    <path id="svg_213" d="m64.05,210.00001l-7.8,-11.2c3.2,-3.4 5.2,-7.9 5.2,-13c0,-10.4 -8.5,-18.9 -18.9,-18.9c-10.4,0 -18.9,8.5 -18.9,18.9c0,10.4 8.5,18.9 18.9,18.9c2.7,0 5.4,-0.6 7.7,-1.6l13.8,6.9z" class="st7"/>
    <path id="svg_214" d="m51.85,182.50001c-0.2,-3.8 -3.3,-4.7 -3.3,-4.7c-3.9,-1.1 -6.6,2.1 -6.6,2.1s-2.7,-3.1 -6.6,-2.1c0,0 -3,0.8 -3.3,4.7c-0.3,4.2 7.2,11.3 9.8,13c2.8,-1.7 10.3,-8.8 10,-13z" class="st11"/>
   </g>
   <path id="svg_215" d="m278.05,236.60001l7.8,-11.2c-3.2,-3.4 -5.2,-7.9 -5.2,-13c0,-10.4 8.5,-18.9 18.9,-18.9c10.4,0 18.9,8.5 18.9,18.9s-8.5,18.9 -18.9,18.9c-2.7,0 -5.4,-0.6 -7.7,-1.6l-13.8,6.9z" class="st5"/>
   <path id="svg_216" d="m290.25,209.10001c0.2,-3.8 3.3,-4.7 3.3,-4.7c3.9,-1.1 6.6,2.1 6.6,2.1s2.7,-3.1 6.6,-2.1c0,0 3,0.8 3.3,4.7c0.3,4.2 -7.2,11.3 -9.8,13c-2.8,-1.7 -10.3,-8.9 -10,-13z" class="st14"/>
   <g id="svg_217">
    <path id="svg_218" d="m63.65,123.60001l-9.4,-13.6c3.9,-4.1 6.3,-9.6 6.3,-15.7c0,-12.7 -10.3,-22.9 -22.9,-22.9s-22.9,10.3 -22.9,22.9c0,12.7 10.3,22.9 22.9,22.9c3.3,0 6.5,-0.7 9.4,-2l16.6,8.4z" class="st11"/>
    <path id="svg_219" d="m24.35,93.20001c0.2,0.1 0.3,0.2 0.5,0.2c0.2,0.1 0.2,0.4 0.1,0.5c-0.3,0.3 -0.4,0.6 -0.5,0.9c-0.1,0.7 0.1,1.2 0.6,1.6c0.2,0.2 0.4,0.3 0.7,0.4c0.3,0.1 0.3,0.4 0.1,0.6c-0.5,0.4 -0.6,1 -0.4,1.6c0.2,0.5 0.5,0.9 1,1.2c0.1,0 0.1,0.1 0.2,0.1c0.2,0.1 0.2,0.1 0.3,0.3c0,0.1 0,0.2 -0.1,0.3c-0.3,0.2 -0.4,0.5 -0.5,0.8c0,0.3 0,0.5 0.1,0.8c0.2,0.4 0.4,0.7 0.7,0.9c0.1,0.1 0.5,0.3 0.8,0.4c0.2,0.1 0.6,0.2 0.8,0.2c7.1,1.4 12,-0.4 12.6,-0.7c0.1,0 0.6,-0.3 0.7,-0.3c0,0 0.2,0 0.2,-0.1l0,-10.4c-0.3,-0.2 -0.5,-0.4 -0.8,-0.6c0,0 0,0 -0.1,-0.1c0,0 0,0 0,0c-1.4,-1.8 -2.3,-3.6 -3.3,-5.6c-0.7,-1.3 -0.9,-4.2 -0.9,-5.2c0,-0.4 -0.3,-1.1 -1.2,-1.1c-0.2,0 -0.7,0 -0.9,0.1c-0.3,0.1 -0.6,0.5 -0.9,1.1c-0.4,0.7 -0.6,1.5 -0.8,2.3c-0.1,0.3 -0.2,0.6 -0.2,0.9c0,0.2 0,0.4 0,0.7c0,0.3 0,0.5 0.1,0.8c0,0.5 0.1,1 0.2,1.5c0.1,0.5 0.2,1.1 0.3,1.6c0,0 0,0 0,0c0,0 0,0.1 0,0.1c0.2,0.7 -0.5,1.1 -0.9,1.3c-0.1,0 -0.6,0.1 -0.7,0.1c-2.3,0 -6,0 -6.5,0c-0.3,0 -0.6,0 -0.9,0c-0.5,0 -1.1,0.3 -1.2,1c-0.2,0.6 0.1,1.4 0.8,1.8z" class="st7"/>
    <path id="svg_220" d="m46.35,105.20001l-1,0c-1.7,0 -3.1,-1.4 -3.1,-3.1l0,-8c0,-1.7 1.4,-3.1 3.1,-3.1l1,0c1.7,0 3.1,1.4 3.1,3.1l0,8c0,1.7 -1.4,3.1 -3.1,3.1z" class="st7"/>
   </g>
   <path id="svg_221" d="m101.15,51.90001c0,-7.5 8.4,-13.6 18.8,-13.6c10.4,0 18.8,6.1 18.8,13.6c0,7.5 -8.4,13.6 -18.8,13.6c-0.4,0 -0.7,0 -1.1,0c-2,1.8 -5.7,4 -12,3.5c0,0 3.7,-1.5 5,-4.8c-6.3,-2.3 -10.7,-6.9 -10.7,-12.3z" class="st5"/>
   <path id="svg_222" d="m158.45,43.20001c0,-7.5 -8.4,-13.6 -18.8,-13.6c-10.4,0 -18.8,6.1 -18.8,13.6s8.4,13.6 18.8,13.6c0.4,0 0.7,0 1.1,0c2,1.8 5.7,4 12,3.5c0,0 -3.7,-1.5 -5,-4.8c6.3,-2.3 10.7,-7 10.7,-12.3z" class="st11"/>
   <g id="svg_223" class="st12">
    <path id="svg_224" d="m158.35,43.20001c0,0.6 -0.1,1.2 -0.2,1.8l-37.4,0c-0.1,-0.6 -0.2,-1.2 -0.2,-1.8c0,-7.5 8.4,-13.6 18.8,-13.6c10.6,0 19,6.1 19,13.6z"/>
   </g>
   <g id="svg_225">
    <path id="svg_226" d="m134.55,45.00001c0,1.2 -0.9,2.1 -2.1,2.1c-1.2,0 -2.1,-0.9 -2.1,-2.1c0,-1.2 0.9,-2.1 2.1,-2.1c1.1,0 2.1,0.9 2.1,2.1z" class="st13"/>
    <circle id="svg_227" r="2.1" cy="45.00001" cx="139.55" class="st13"/>
    <circle id="svg_228" r="2.1" cy="45.00001" cx="146.75" class="st13"/>
   </g>
   <path id="svg_229" d="m137.65,56.60001c-0.8,1.5 -1.9,2.8 -3.2,4c-9.6,-2.3 -16.3,-9.4 -15.2,-16.7c0.3,-2.1 1.2,-4 2.6,-5.6c0.1,-0.1 0.2,-0.2 0.3,-0.3c-0.1,0.1 -0.1,0.2 -0.2,0.4c-0.8,1.5 -1.2,3.1 -1.2,4.8c0,7 7.4,12.7 16.9,13.4z" class="st6"/>
   <g id="svg_230">
    <path id="svg_231" d="m230.95,83.80001l7.9,-11.4c-3.2,-3.4 -5.2,-8.1 -5.2,-13.2c0,-10.6 8.6,-19.2 19.2,-19.2s19.2,8.6 19.2,19.2s-8.6,19.2 -19.2,19.2c-2.8,0 -5.4,-0.6 -7.8,-1.7l-14.1,7.1z" class="st11"/>
    <path id="svg_232" d="m242.45,61.10001c0.1,-0.1 0.3,-0.1 0.4,-0.2c0.2,0 0.2,-0.3 0.1,-0.4c-0.2,-0.2 -0.3,-0.5 -0.4,-0.8c-0.1,-0.5 0.1,-1 0.5,-1.3c0.2,-0.1 0.3,-0.3 0.5,-0.3c0.2,-0.1 0.3,-0.4 0.1,-0.5c-0.4,-0.3 -0.5,-0.8 -0.3,-1.3c0.2,-0.4 0.4,-0.7 0.8,-1c0.1,0 0.1,-0.1 0.2,-0.1c0.1,0 0.2,-0.1 0.2,-0.3c0,-0.1 0,-0.2 -0.1,-0.3c-0.2,-0.2 -0.4,-0.4 -0.4,-0.7c0,-0.2 0,-0.4 0.1,-0.6c0.1,-0.3 0.4,-0.5 0.6,-0.8c0.1,-0.1 0.4,-0.3 0.7,-0.4c0.1,-0.1 0.5,-0.1 0.6,-0.2c5.8,-1.2 9.9,0.3 10.4,0.5c0.1,0 0.5,0.3 0.6,0.3c0,0 0.1,0 0.1,0l0,8.7c-0.2,0.2 -0.4,0.3 -0.7,0.5c0,0 0,0 -0.1,0.1c0,0 0,0 0,0c-1.2,1.5 -1.9,3 -2.8,4.6c-0.6,1.1 -0.7,3.4 -0.7,4.3c0,0.4 -0.3,0.9 -1,0.9c-0.2,0 -0.5,0 -0.8,-0.1c-0.3,-0.1 -0.5,-0.4 -0.7,-0.9c-0.3,-0.6 -0.5,-1.2 -0.7,-1.9c-0.1,-0.2 -0.1,-0.5 -0.2,-0.7c0,-0.2 0,-0.4 0,-0.6c0,-0.2 0,-0.4 0,-0.6c0,-0.4 0.1,-0.8 0.2,-1.2c0.1,-0.4 0.2,-0.9 0.2,-1.3c0,0 0,0 0,0c0,0 0,-0.1 0,-0.1c0.1,-0.6 -0.4,-0.9 -0.8,-1c-0.1,0 -0.5,-0.1 -0.6,-0.1c-1.9,0 -5,0 -5.4,0c-0.3,0 -0.5,0 -0.8,0c-0.4,0 -0.9,-0.3 -1,-0.8c0.3,-0.4 0.6,-1.1 1.2,-1.4z" class="st7"/>
    <path id="svg_233" d="m260.25,51.20001l-0.8,0c-1.4,0 -2.6,1.2 -2.6,2.6l0,6.6c0,1.4 1.2,2.6 2.6,2.6l0.8,0c1.4,0 2.6,-1.2 2.6,-2.6l0,-6.6c-0.1,-1.4 -1.2,-2.6 -2.6,-2.6z" class="st7"/>
   </g>
   <g id="svg_234">
    <path id="svg_235" d="m291.45,139.30001l4.3,-22.7l4.6,0l-1.7,9l0.1,0c1.3,-1.4 2.9,-2.4 5,-2.4c2.4,0 3.9,1.5 3.9,4.2c0,0.7 -0.1,1.9 -0.3,2.8l-1.7,8.9l-4.6,0l1.6,-8.6c0.1,-0.6 0.2,-1.3 0.2,-1.9c0,-1 -0.4,-1.8 -1.6,-1.8c-1.6,0 -3.2,1.9 -3.8,5.1l-1.3,7.2l-4.7,0l0,0.2z" class="st3"/>
    <path id="svg_236" d="m309.45,139.30001l3,-15.6l4.6,0l-3,15.6l-4.6,0zm3.6,-19.8c0,-1.6 1.2,-2.6 2.7,-2.6c1.3,0 2.3,0.9 2.3,2.3c0,1.6 -1.2,2.6 -2.7,2.6c-1.4,0 -2.3,-0.9 -2.3,-2.3z" class="st3"/>
    <path id="svg_237" d="m317.95,137.10001c0,-1.7 1.3,-3.2 3.1,-3.2c1.6,0 2.7,1.1 2.7,2.7c0,1.8 -1.3,3.1 -3.1,3.1c-1.7,0 -2.7,-1.1 -2.7,-2.6zm1.8,-4.8l2.1,-14.5l5,0l-3.5,14.5l-3.6,0z" class="st3"/>
   </g>
  </g>
 </g>
</svg>