<svg width="177" height="100" viewBox="0 0 177 100" fill="none" xmlns="http://www.w3.org/2000/svg">
<path d="M102 50C102 66.5685 88.5685 80 72 80C55.4315 80 42 66.5685 42 50C42 33.4315 55.4315 20 72 20C88.5685 20 102 33.4315 102 50Z" fill="#68DBFF"/>
<path d="M134.353 50C134.353 66.5685 121.053 80 104.647 80C88.241 80 74.9412 66.5685 74.9412 50C74.9412 33.4315 88.241 20 104.647 20C121.053 20 134.353 33.4315 134.353 50Z" fill="#FF7917"/>
<path d="M88.4039 75.1221C96.5911 69.7652 102 60.5143 102 50C102 39.4858 96.5911 30.2348 88.4039 24.878C80.2971 30.2348 74.9412 39.4858 74.9412 50C74.9412 60.5143 80.2971 69.7652 88.4039 75.1221Z" fill="#5D2C02"/>
</svg>
