<svg xmlns="http://www.w3.org/2000/svg" width="136" height="27" style=""><rect id="backgroundrect" width="100%" height="100%" x="0" y="0" fill="none" stroke="none"/><g class="currentLayer" style=""><title>Layer 1</title><path d="M20.348891586303708,11.702981658935549 A3.656,3.656 0 0 0 19.30289158630371,14.631981658935544 l-0.018000000000000002,-0.018000000000000002 a4.344,4.344 0 0 1 -4.694,4.694 l0.018000000000000002,0.018000000000000002 A3.678,3.678 0 1 0 17.92989158630371,22.643981658935544 l0.019000000000000003,0.018000000000000002 a4.344,4.344 0 0 1 4.694,-4.694 l-0.019000000000000003,-0.018000000000000002 a3.6710000000000003,3.6710000000000003 0 1 0 -2.2720000000000002,-6.247 z" fill="#fff" id="svg_1" class=""/><path d="M12.971891586303713,16.96798165893555 l-0.019000000000000003,-0.018000000000000002 A3.6310000000000002,3.6310000000000002 0 0 0 16.92989158630371,12.975981658935545 l0.019000000000000003,0.018000000000000002 a4.344,4.344 0 0 1 4.694,-4.694 l-0.019000000000000003,-0.018000000000000002 a3.678,3.678 0 1 0 -3.318,-3.318 l-0.018000000000000002,-0.019000000000000003 a4.343,4.343 0 0 1 -4.694,4.694 l0.018000000000000002,0.019000000000000003 A3.6310000000000002,3.6310000000000002 0 0 0 9.63489158630371,13.631981658935544 l-0.018000000000000002,-0.018000000000000002 a4.345,4.345 0 0 1 -4.694,4.694 l0.018000000000000002,0.018000000000000002 a3.678,3.678 0 1 0 3.318,3.318 l0.019000000000000003,0.018000000000000002 A4.344,4.344 0 0 1 12.971891586303713,16.96798165893555 z" fill="#fff" id="svg_2" class=""/><path d="M6.269891586303711,14.960981658935545 A3.652,3.652 0 0 0 7.3148915863037125,12.03198165893555 l0.019000000000000003,0.018000000000000002 A4.344,4.344 0 0 1 12.029891586303712,7.355981658935548 l-0.019000000000000003,-0.018000000000000002 a3.677,3.677 0 1 0 -3.318,-3.318 l-0.018000000000000002,-0.018000000000000002 a4.344,4.344 0 0 1 -4.694,4.694 l0.018000000000000002,0.018000000000000002 a3.6710000000000003,3.6710000000000003 0 1 0 2.273,6.247 z" fill="#fff" id="svg_3" class=""/><path d="M37.24689158630371,4.986981658935548 h2.9699999999999998 V19.439981658935544 h-2.9699999999999998 z" fill="#fff" id="svg_4" class=""/><path d="M41.89889158630371,14.490981658935546 a5.247,5.247 0 1 1 5.247,5.226 A5.188,5.188 0 0 1 41.89889158630371,14.490981658935546 zm7.524,0 A2.278,2.278 0 1 0 47.145891586303705,16.831981658935547 A2.221,2.221 0 0 0 49.422891586303706,14.490981658935546 z" fill="#fff" id="svg_5" class=""/><path d="M64.22989158630371,9.54098165893555 v9.4 c0,3.326 -2.5940000000000003,4.732 -5.227,4.732 a5.062,5.062 0 0 1 -4.692,-2.4 l2.534,-1.465 a2.262,2.262 0 0 0 2.257,1.247 a1.9729999999999999,1.9729999999999999 0 0 0 2.237,-2.118 V18.03198165893555 a3.516,3.516 0 0 1 -2.891,1.287 a5.031,5.031 0 0 1 0,-10.057 a3.516,3.516 0 0 1 2.891,1.287 v-1.01 zM61.33989158630371,14.291981658935548 a2.4,2.4 0 1 0 -2.395,2.3 A2.24,2.24 0 0 0 61.33989158630371,14.291981658935548 z" fill="#fff" id="svg_6" class=""/><path d="M65.91189158630371,14.490981658935546 a5.247,5.247 0 1 1 5.247,5.226 A5.188,5.188 0 0 1 65.91189158630371,14.490981658935546 zm7.524,0 A2.278,2.278 0 1 0 71.15889158630371,16.831981658935547 A2.221,2.221 0 0 0 73.43589158630371,14.490981658935546 z" fill="#fff" id="svg_7" class=""/><path d="M77.79089158630372,6.887981658935544 a1.782,1.782 0 1 1 1.782,1.782 A1.8,1.8 0 0 1 77.79089158630372,6.887981658935544 zm0.30000000000000004,2.653 h2.971 v9.9 H78.08689158630371 z" fill="#fff" id="svg_8" class=""/><path d="M93.88589158630371,14.490981658935546 a4.971,4.971 0 0 1 -4.732,5.226 a3.715,3.715 0 0 1 -2.949,-1.208 v4.891 h-2.9699999999999998 V9.54098165893555 h2.9699999999999998 v0.93 a3.717,3.717 0 0 1 2.949,-1.207 A4.97,4.97 0 0 1 93.88589158630371,14.490981658935546 zm-2.9699999999999998,0 a2.356,2.356 0 1 0 -2.355,2.415 A2.26,2.26 0 0 0 90.91589158630372,14.490981658935546 z" fill="#fff" id="svg_9" class=""/><path d="M103.0508915863037,16.469981658935545 c0,2.277 -1.979,3.247 -4.117,3.247 a4.335,4.335 0 0 1 -4.257,-2.356 l2.573,-1.465 A1.6270000000000002,1.6270000000000002 0 0 0 98.92989158630371,17.063981658935546 c0.7120000000000001,0 1.069,-0.21800000000000003 1.069,-0.6130000000000001 c0,-1.09 -4.871,-0.515 -4.871,-3.94 c0,-2.159 1.822,-3.247 3.8810000000000002,-3.247 a4.329,4.329 0 0 1 3.8600000000000003,2.118 l-2.534,1.366 a1.437,1.437 0 0 0 -1.326,-0.8710000000000001 c-0.515,0 -0.8320000000000001,0.2 -0.8320000000000001,0.554 C98.18089158630372,13.559981658935548 103.0508915863037,12.806981658935548 103.0508915863037,16.469981658935545 z" fill="#fff" id="svg_10" class=""/><path d="M113.89989158630371,9.54098165893555 v9.9 H110.92989158630371 v-0.931 a3.382,3.382 0 0 1 -2.83,1.208 c-2,0 -3.7,-1.425 -3.7,-4.1 V9.54098165893555 h2.9699999999999998 v5.642 a1.6320000000000001,1.6320000000000001 0 0 0 1.722,1.8 c1.089,0 1.8410000000000002,-0.6330000000000001 1.8410000000000002,-2.039 v-5.4 z" fill="#fff" id="svg_11" class=""/><path d="M130.9298915863037,13.361981658935548 v6.078 h-2.9699999999999998 V13.618981658935546 c0,-0.99 -0.47500000000000003,-1.6230000000000002 -1.425,-1.6230000000000002 c-0.99,0 -1.545,0.6930000000000002 -1.545,1.8610000000000002 v5.583 h-2.9690000000000003 V13.618981658935546 c0,-0.99 -0.47500000000000003,-1.6230000000000002 -1.4260000000000002,-1.6230000000000002 c-0.99,0 -1.544,0.6930000000000002 -1.544,1.8610000000000002 v5.583 h-2.9699999999999998 v-9.9 h2.9699999999999998 v0.91 a3.039,3.039 0 0 1 2.653,-1.187 a2.9450000000000003,2.9450000000000003 0 0 1 2.593,1.306 a3.262,3.262 0 0 1 2.871,-1.306 C129.4408915863037,9.263981658935549 130.9298915863037,10.886981658935547 130.9298915863037,13.361981658935548 z" fill="#fff" id="svg_12" class=""/><circle cx="133.44188499450684" cy="7.275981903076172" r="2.2039999961853027" fill="#fff" id="svg_13" class=""/></g></svg>